<?xml version="1.0" encoding="UTF-8"?>
<svg width="328px" height="77px" viewBox="0 0 328 77" version="1.1" xmlns="http://www.w3.org/2000/svg" xmlns:xlink="http://www.w3.org/1999/xlink">
    <!-- Generator: Sketch 61.2 (89653) - https://sketch.com -->
    <title>Group 2</title>
    <desc>Created with Sketch.</desc>
    <g id="Page-1" stroke="none" stroke-width="1" fill="none" fill-rule="evenodd">
        <g id="Group-2" transform="translate(-2.000000, -1.000000)">
            <g id="Group">
                <path d="M25.24432,28.5058616 L40.8803352,56.6328866 C41.417021,57.59831 41.0694605,58.81601 40.1040372,59.3526957 C39.8069978,59.517822 39.4727795,59.6045322 39.132928,59.6046421 L7.84269693,59.6147535 C6.73812749,59.6151105 5.84240767,58.7199694 5.84205073,57.6153999 C5.84194069,57.2748792 5.9287759,56.9399691 6.09432901,56.6424013 L21.7485449,28.5052647 C22.2855603,27.5400247 23.5033789,27.1928801 24.4686189,27.7298955 C24.7944663,27.9111821 25.0631447,28.1799523 25.24432,28.5058616 Z" id="Triangle" fill="#FFDE59" transform="translate(23.485891, 42.489236) rotate(16.000000) translate(-23.485891, -42.489236) "></path>
                <path d="M48.7597717,10.7447541 L64.3866736,38.8745123 C64.9230805,39.8400906 64.5751684,41.0576901 63.6095901,41.5940971 C63.3127956,41.7589751 62.9789129,41.8455833 62.639396,41.8457627 L31.3558475,41.8622874 C30.2512782,41.8628709 29.3553748,40.9679135 29.3547914,39.8633442 C29.3546115,39.5227333 29.4414239,39.1877198 29.6069994,38.8900614 L45.2636458,10.7437785 C45.8005916,9.77849974 47.0183852,9.43126728 47.9836639,9.96821305 C48.3097388,10.1495954 48.5785714,10.4185781 48.7597717,10.7447541 Z" id="Triangle" fill="#FF5757" transform="translate(46.994481, 24.731878) rotate(-150.000000) translate(-46.994481, -24.731878) "></path>
                <path d="M58.8865889,42.4567981 L74.5404635,70.5933424 C75.0774786,71.5585826 74.7303336,72.7764011 73.7650934,73.3134162 C73.4675366,73.4789631 73.13264,73.565798 72.7921318,73.5656941 L41.5015556,73.5561535 C40.3969861,73.5558168 39.5018287,72.6601133 39.5021655,71.5555438 C39.5022691,71.2156671 39.5889861,70.8814232 39.7541303,70.584365 L55.3908319,42.4573613 C55.9275359,41.4919481 57.1452425,41.1444108 58.1106556,41.6811148 C58.4365504,41.8622902 58.7053086,42.1309617 58.8865889,42.4567981 Z" id="Triangle" fill="#38B6FF" transform="translate(57.148657, 56.440476) rotate(-15.000000) translate(-57.148657, -56.440476) "></path>
            </g>
            <text id="ProdConnect" font-family="Montserrat-Bold, Montserrat" font-size="36" font-weight="bold" fill="#FFFFFF">
                <tspan x="80" y="52">ProdConnect</tspan>
            </text>
        </g>
    </g>
</svg>