<?xml version="1.0" encoding="UTF-8"?>
<svg width="490px" height="157px" viewBox="0 0 490 157" version="1.1" xmlns="http://www.w3.org/2000/svg" xmlns:xlink="http://www.w3.org/1999/xlink">
    <!-- Generator: Sketch 61.2 (89653) - https://sketch.com -->
    <title>Group 5</title>
    <desc>Created with Sketch.</desc>
    <g id="Page-1" stroke="none" stroke-width="1" fill="none" fill-rule="evenodd">
        <g id="Group-5" transform="translate(-5.000000, -2.000000)">
            <g id="Group-4">
                <g id="Group-3">
                    <g id="Group-2">
                        <g id="Group" transform="translate(332.000000, 0.000000)">
                            <path d="M49.9114802,55.1744356 L85.5473583,119.299231 C86.0839112,120.264729 85.736183,121.482381 84.7706858,122.018934 C84.4736072,122.184028 84.1393567,122.270693 83.7994863,122.270746 L12.5075024,122.281984 C11.402933,122.282158 10.5073613,121.386868 10.5071872,120.282299 C10.5071336,119.942102 10.593859,119.607514 10.7591617,119.310178 L46.4152674,55.1741445 C46.951981,54.2087367 48.1696911,53.8612114 49.1350989,54.397925 C49.4612705,54.5792584 49.7302011,54.8482339 49.9114802,55.1744356 Z" id="Triangle" fill="#FFDE59" transform="translate(48.152557, 87.155903) rotate(16.000000) translate(-48.152557, -87.155903) "></path>
                            <path d="M98.0936834,18.7457187 L133.719446,82.8735751 C134.255863,83.8391479 133.907964,85.056751 132.942391,85.5931679 C132.645432,85.7581414 132.311345,85.8447562 131.971637,85.8448438 L60.6870545,85.8632089 C59.5824851,85.8634934 58.6868239,84.9682936 58.6865394,83.8637242 C58.6864517,83.5234834 58.7731661,83.188845 58.9384797,82.8914643 L94.5972997,18.7452428 C95.1339794,17.7798161 96.3516772,17.432248 97.3171039,17.9689278 C97.6433863,18.1503079 97.9123921,18.4193869 98.0936834,18.7457187 Z" id="Triangle" fill="#FF5757" transform="translate(96.327815, 50.731878) rotate(-150.000000) translate(-96.327815, -50.731878) "></path>
                            <path d="M118.886553,83.7923796 L154.542279,147.927753 C155.078993,148.893161 154.731467,150.110871 153.766059,150.647585 C153.468728,150.812884 153.134147,150.89961 152.793956,150.899559 L81.5015898,150.888956 C80.3970203,150.888792 79.501723,149.993228 79.5018873,148.888659 C79.5019379,148.548776 79.5886056,148.214513 79.7537089,147.917425 L115.390349,83.7926543 C115.926911,82.8271621 117.144566,82.4794452 118.110059,83.016007 C118.436253,83.1972861 118.705223,83.4662134 118.886553,83.7923796 Z" id="Triangle" fill="#38B6FF" transform="translate(117.148657, 115.773810) rotate(-15.000000) translate(-117.148657, -115.773810) "></path>
                        </g>
                        <text id="Prod-Connect" font-family="Montserrat-Bold, Montserrat" font-size="72" font-weight="bold" line-spacing="52" fill="#FFFFFF">
                            <tspan x="138.024" y="98">Prod</tspan>
                            <tspan x="0" y="150">Connect</tspan>
                        </text>
                    </g>
                    <text id="Connecting-Video-Pro" font-family="Montserrat-Light, Montserrat" font-size="14" font-weight="300" fill="#FFFFFF">
                        <tspan x="19.65" y="155">Connecting Video Production Professionals</tspan>
                    </text>
                </g>
            </g>
        </g>
    </g>
</svg>