<?xml version="1.0" encoding="UTF-8"?>
<svg width="14px" height="15px" viewBox="0 0 14 15" version="1.1" xmlns="http://www.w3.org/2000/svg" xmlns:xlink="http://www.w3.org/1999/xlink">
    <!-- Generator: Sketch 61.2 (89653) - https://sketch.com -->
    <title>Group</title>
    <desc>Created with Sketch.</desc>
    <g id="Page-2" stroke="none" stroke-width="1" fill="none" fill-rule="evenodd">
        <g id="Group" transform="translate(-1.000000, -1.000000)">
            <path d="M6.4043053,8.40246045 L6.87240347,9.25558181 C7.40374113,10.2239588 7.04945072,11.4397178 6.0810737,11.9710555 C5.78237482,12.1349482 5.44675886,12.2198169 5.10605814,12.2176119 L4.18064243,12.2116226 C3.07609607,12.2044741 2.18647937,11.3032673 2.19362793,10.1987209 C2.19574629,9.87140585 2.27816762,9.54961325 2.43365904,9.26158192 L2.89097658,8.41444979 C3.41569271,7.44246895 4.62900534,7.07988926 5.60098618,7.60460539 C5.94001912,7.78762962 6.21897143,8.06468455 6.4043053,8.40246045 Z" id="Triangle" fill="#FFDE59" transform="translate(4.681227, 8.710230) rotate(16.000000) translate(-4.681227, -8.710230) "></path>
            <path d="M11.0529663,4.66479337 L11.5268619,5.51701426 C12.0636687,6.48237026 11.716261,7.70011384 10.750905,8.23692067 C10.4473826,8.4057008 10.1051413,8.4925356 9.75786728,8.48887809 L8.82770967,8.47908162 C7.72320143,8.46744887 6.83725079,7.56263782 6.84888354,6.45812958 C6.85231151,6.13264935 6.93512801,5.81292426 7.09014389,5.52670895 L7.54640587,4.68428453 C8.07244803,3.7130207 9.28625436,3.35209723 10.2575182,3.87813939 C10.5921002,4.05935095 10.8680465,4.3322465 11.0529663,4.66479337 Z" id="Triangle" fill="#FF5757" transform="translate(9.354817, 5.002505) rotate(-150.000000) translate(-9.354817, -5.002505) "></path>
            <path d="M13.1855518,11.2853757 L13.6430516,12.1328218 C14.1677791,13.1047966 13.8052135,14.3181134 12.8332388,14.8428409 C12.5449855,14.9984564 12.2229212,15.0808869 11.8953512,15.0828876 L10.9701801,15.0885385 C9.86563116,15.0952849 8.96474829,14.2053402 8.95800184,13.1007913 C8.95592393,12.7605889 9.04066297,12.4254795 9.20420447,12.1271572 L9.6718758,11.2740602 C10.2028526,10.3054853 11.4184795,9.95074191 12.3870544,10.4817187 C12.7251148,10.6670448 13.0024069,10.9461287 13.1855518,11.2853757 Z" id="Triangle" fill="#38B6FF" transform="translate(11.397032, 11.579842) rotate(-15.000000) translate(-11.397032, -11.579842) "></path>
        </g>
    </g>
</svg>